<?xml version="1.0" encoding="UTF-8" standalone="no"?><!DOCTYPE svg PUBLIC "-//W3C//DTD SVG 1.1//EN" "http://www.w3.org/Graphics/SVG/1.1/DTD/svg11.dtd"><svg width="100%" height="100%" viewBox="0 0 1563 1563" version="1.1" xmlns="http://www.w3.org/2000/svg" xmlns:xlink="http://www.w3.org/1999/xlink" xml:space="preserve" xmlns:serif="http://www.serif.com/" style="fill-rule:evenodd;clip-rule:evenodd;stroke-linecap:round;stroke-linejoin:round;stroke-miterlimit:1.5;"><path d="M237.5,806.25l515.625,-696.875l268.75,331.25l-375,328.125l-409.375,37.5Z" style="fill:#f9e9e8;stroke:#f9e9e8;stroke-width:35.42px;"/><path d="M228.125,831.25c169.291,-79.334 352.951,-70.556 387.5,-100c179.788,-153.223 166.815,-403.122 375,-275c107.969,93.904 228.7,200.476 303.125,334.375c71.737,113.801 91.574,252.153 78.125,406.25c-65.668,133.675 -168.467,225.707 -309.375,275c-135.872,30.409 -287.558,47.708 -487.5,25c-103.496,-24.03 -204.369,-80.829 -300,-203.125c-79.792,-125.635 -114.423,-271.35 -46.875,-462.5Z" style="fill:#fbd6d2;stroke:#fbd6d2;stroke-width:35.42px;"/><path d="M293.75,1309.375c9.4,-32.756 31.758,-57.456 65.625,-75c69.949,-27.817 253.904,-53.203 268.75,-128.125c40.72,-205.491 150.672,-341.404 181.25,-353.125c51.85,-38.053 145.983,12.527 250,-40.625l42.11,-37.549l64.14,-84.326c57.253,69.304 116.647,159.07 178.125,268.75c50.963,167.873 35.363,316.364 -31.25,450c-153.498,130.084 -308.631,197.553 -465.625,193.75c-130.144,11.745 -261.352,-2.842 -393.75,-46.875c-93.379,-61.138 -157.995,-113.573 -159.375,-146.875" style="fill:#f190b7;stroke:#f190b7;stroke-width:35.42px;"/><path d="M528.125,1468.75c10.257,-51.107 18.091,-77.076 106.25,-87.5c94.405,17.506 125.047,39.471 193.75,-12.5c75.701,-104.069 100.639,-169.423 146.875,-206.25c114.573,-71.845 200.141,-20.038 321.875,-68.75c44.607,-37.943 46.731,-61.711 65.625,-65.625c68.889,12.266 -14.263,126.938 -50,296.875c-147.641,105.903 -271.232,163.508 -368.75,168.75c-164.945,17.808 -310.844,16.759 -415.625,-25" style="fill:#cb72c1;stroke:#cb72c1;stroke-width:35.42px;"/><path d="M772.336,84.375c-188.708,295.214 -599.867,642.277 -584.66,961.684c34.089,329.311 255.524,463.203 622.909,458.986c344.813,-24.031 584.626,-134.51 562.804,-475.378c-25.493,-197.82 -125.529,-350.968 -240.421,-475.378c-226.966,-230.656 -351.87,-391.506 -360.632,-469.914Z" style="fill:none;stroke:#471b57;stroke-width:72.85px;"/><path d="M439.025,822.03l0,27.321" style="fill:none;stroke:#471b57;stroke-width:123.85px;"/><path d="M1100.183,822.03l0,27.321" style="fill:none;stroke:#471b57;stroke-width:123.85px;"/><path d="M635.733,958.633c93.055,18.89 187.883,17.558 284.134,0c2.036,31.868 -116.902,95.129 -147.531,92.89c-41.373,6.53 -136.533,-38.812 -136.603,-92.89Z" style="fill:none;stroke:#471b57;stroke-width:61.93px;"/><path d="M684.91,996.882l136.603,10.928" style="fill:none;stroke:#471b57;stroke-width:61.93px;"/></svg>