<?xml version="1.0" encoding="UTF-8" standalone="no"?><!DOCTYPE svg PUBLIC "-//W3C//DTD SVG 1.1//EN" "http://www.w3.org/Graphics/SVG/1.1/DTD/svg11.dtd"><svg width="100%" height="100%" viewBox="0 0 1563 1563" version="1.1" xmlns="http://www.w3.org/2000/svg" xmlns:xlink="http://www.w3.org/1999/xlink" xml:space="preserve" xmlns:serif="http://www.serif.com/" style="fill-rule:evenodd;clip-rule:evenodd;stroke-linecap:round;stroke-linejoin:round;stroke-miterlimit:1.5;"><path d="M772.336,84.375c-188.708,295.214 -599.867,642.277 -584.66,961.684c34.089,329.311 255.524,463.203 622.909,458.986c344.813,-24.031 584.626,-134.51 562.804,-475.378c-25.493,-197.82 -125.529,-350.968 -240.421,-475.378c-226.966,-230.656 -351.87,-391.506 -360.632,-469.914Z" style="fill:#471b57;stroke:#fbd6d2;stroke-width:72.85px;"/><path d="M439.025,822.03l0,27.321" style="fill:none;stroke:#fbd6d2;stroke-width:123.85px;"/><path d="M1100.183,822.03l0,27.321" style="fill:none;stroke:#fbd6d2;stroke-width:123.85px;"/><path d="M635.733,958.633c93.055,18.89 187.883,17.558 284.134,0c2.036,31.868 -116.902,95.129 -147.531,92.89c-41.373,6.53 -136.533,-38.812 -136.603,-92.89Z" style="fill:none;stroke:#fbd6d2;stroke-width:61.93px;"/><path d="M684.91,996.882l136.603,10.928" style="fill:none;stroke:#fbd6d2;stroke-width:61.93px;"/></svg>