<?xml version="1.0" encoding="UTF-8" standalone="no"?>
<!DOCTYPE svg PUBLIC "-//W3C//DTD SVG 1.1//EN" "http://www.w3.org/Graphics/SVG/1.1/DTD/svg11.dtd">
<svg width="100%" height="100%" viewBox="0 0 500 500" version="1.1" xmlns="http://www.w3.org/2000/svg" xmlns:xlink="http://www.w3.org/1999/xlink" xml:space="preserve" xmlns:serif="http://www.serif.com/" style="fill-rule:evenodd;clip-rule:evenodd;stroke-linecap:round;stroke-linejoin:round;stroke-miterlimit:1.5;">
    <path d="M76,258L241,35L327,141L207,246L76,258Z" style="fill:rgb(249,233,232);stroke:rgb(249,233,232);stroke-width:11.33px;"/>
    <path d="M73,266C127.173,240.613 185.944,243.422 197,234C254.532,184.969 250.381,105.001 317,146C351.55,176.049 390.184,210.152 414,253C436.956,289.416 443.304,333.689 439,383C417.986,425.776 385.091,455.226 340,471C296.521,480.731 247.981,486.266 184,479C150.881,471.31 118.602,453.135 88,414C62.467,373.797 51.385,327.168 73,266Z" style="fill:rgb(251,214,210);stroke:rgb(251,214,210);stroke-width:11.33px;"/>
    <path d="M94,419C97.008,408.518 104.163,400.614 115,395C137.384,386.099 196.249,377.975 201,354C214.03,288.243 249.215,244.751 259,241C275.592,228.823 305.715,245.009 339,228L352.475,215.984L373,189C391.321,211.177 410.327,239.903 430,275C446.308,328.719 441.316,376.236 420,419C370.881,460.627 321.238,482.217 271,481C229.354,484.758 187.367,480.09 145,466C115.119,446.436 94.442,429.657 94,419" style="fill:rgb(241,144,183);stroke:rgb(241,144,183);stroke-width:11.33px;"/>
    <path d="M169,470C172.282,453.646 174.789,445.336 203,442C233.21,447.602 243.015,454.631 265,438C289.224,404.698 297.205,383.785 312,372C348.663,349.01 376.045,365.588 415,350C429.274,337.858 429.954,330.253 436,329C458.044,332.925 431.436,369.62 420,424C372.755,457.889 333.206,476.323 302,478C249.218,483.699 202.53,483.363 169,470" style="fill:rgb(203,114,193);stroke:rgb(203,114,193);stroke-width:11.33px;"/>
    <g transform="matrix(1.748516,0,0,1.748516,-205.718261,-168.833843)">
        <path d="M259,112C224.464,166.028 149.217,229.545 152,288C158.239,348.268 198.764,372.772 266,372C329.105,367.602 372.994,347.383 369,285C364.334,248.796 346.027,220.768 325,198C283.462,155.787 260.603,126.35 259,112Z" style="fill:none;stroke:rgb(71,27,87);stroke-width:13.33px;"/>
    </g>
    <g transform="matrix(1.748516,0,0,1.748516,-205.718261,-168.833843)">
        <path d="M198,247L198,252" style="fill:none;stroke:rgb(71,27,87);stroke-width:22.67px;"/>
    </g>
    <g transform="matrix(1.748516,0,0,1.748516,-205.718261,-168.833843)">
        <path d="M319,247L319,252" style="fill:none;stroke:rgb(71,27,87);stroke-width:22.67px;"/>
    </g>
    <g transform="matrix(1.748516,0,0,1.748516,-205.718261,-168.833843)">
        <path d="M234,272C251.03,275.457 268.385,275.213 286,272C286.373,277.832 264.606,289.41 259,289C251.428,290.195 234.013,281.897 234,272Z" style="fill:none;stroke:rgb(71,27,87);stroke-width:11.33px;"/>
    </g>
    <g transform="matrix(1.748516,0,0,1.748516,-205.718261,-168.833843)">
        <path d="M243,279L268,281" style="fill:none;stroke:rgb(71,27,87);stroke-width:11.33px;"/>
    </g>
</svg>
